PathFileType	4	(X/Y/Z)	E:\Qualisys_Data\Carbon_Farble_Plate\Data\Amateur_Runner\S14\T3\S14T3V12_c3d.trc
DataRate	CameraRate	NumFrames	NumMarkers	Units	OrigDataRate	OrigDataStartFrame	OrigNumFrames
200.000000	200.000000	4	39	mm	200.000000	122	327
Frame#	Time	LSHO			RSHO			LICST			RICST			LASIS			LHEEL			RASIS			LTROC			RTROC			SACR			LTH1			LSK4			LTH2			LTH3			RHM5			LSK2			LTH4			RTH1			LTOE			RTH2			RTH3			RTH4			LLEP			RLEP			LSK1			LSK3			RSK1			LHM5			RSK2			LFT1			RSK3			RSK4			LLME			RLME			RTOE			RHEEL			RFT1			RFT2			LFT2			
		X1	Y1	Z1	X2	Y2	Z2	X3	Y3	Z3	X4	Y4	Z4	X5	Y5	Z5	X6	Y6	Z6	X7	Y7	Z7	X8	Y8	Z8	X9	Y9	Z9	X10	Y10	Z10	X11	Y11	Z11	X12	Y12	Z12	X13	Y13	Z13	X14	Y14	Z14	X15	Y15	Z15	X16	Y16	Z16	X17	Y17	Z17	X18	Y18	Z18	X19	Y19	Z19	X20	Y20	Z20	X21	Y21	Z21	X22	Y22	Z22	X23	Y23	Z23	X24	Y24	Z24	X25	Y25	Z25	X26	Y26	Z26	X27	Y27	Z27	X28	Y28	Z28	X29	Y29	Z29	X30	Y30	Z30	X31	Y31	Z31	X32	Y32	Z32	X33	Y33	Z33	X34	Y34	Z34	X35	Y35	Z35	X36	Y36	Z36	X37	Y37	Z37	X38	Y38	Z38	X39	Y39	Z39	

123	0.61	-825.0925903320312	1361.110717773438	-557.6893920898438	-803.4671020507812	1381.982788085938	-247.5060272216797	-897.7650756835938	938.1962890625	-506.8989562988281	-850.0918579101562	935.9618530273438	-228.1877746582031	-851.2447509765625	890.4271240234375	-489.1120910644531	-1224.22802734375	132.3459167480469	-348.19580078125	-829.3888549804688	892.3116455078125	-250.8970031738281	-988.3375854492188	824.5492553710938	-515.0677490234375	-952.3945922851562	812.3579711914062	-186.2068634033203	-1012.272644042969	942.3471069335938	-359.2877197265625	-899.2503051757812	594.1659545898438	-512.08837890625	-1072.339599609375	294.0216979980469	-441.9602355957031	-972.7088012695312	589.2728271484375	-487.3539733886719	-881.1177978515625	499.3253479003906	-485.2765808105469	-1007.56103515625	120.1269454956055	-192.2517852783203	-1011.362670898438	367.0625915527344	-468.6684875488281	-957.9735107421876	494.9053344726562	-464.6974792480469	-742.49462890625	649.828369140625	-198.4810485839844	-979.4212646484376	62.94670104980469	-388.9120788574219	-813.8953857421875	620.8734741210938	-183.2010345458984	-703.9489135742188	559.2542724609375	-222.7296142578125	-779.0172119140625	526.4196166992188	-200.5408325195312	-925.7565307617188	421.868408203125	-474.9074096679688	-743.8883666992188	477.4808654785156	-211.0230255126953	-945.5032348632812	318.6225280761719	-460.9249877929688	-1009.318359375	242.7151489257812	-435.9030151367188	-803.4092407226562	381.97509765625	-208.0754699707031	-1052.849731445312	65.6200942993164	-447.2689208984375	-859.4924926757812	446.7569885253906	-205.8699340820312	-1220.165649414062	99.059326171875	-322.7384033203125	-886.34716796875	320.5491333007812	-219.9405364990234	-932.0301513671876	384.5177307128906	-216.6571655273438	-1154.547607421875	142.8545989990234	-409.7760009765625	-1047.0810546875	255.9705200195312	-231.6497955322266	-953.0962524414062	68.7845230102539	-256.7154846191406	-1107.032836914062	274.3186950683594	-287.8495788574219	-1122.366943359375	244.3581085205078	-313.8136596679688	-1126.387939453125	264.0578308105469	-263.5594482421875	-1231.080444335938	104.9441528320312	-376.219482421875
124	0.615	-807.2559814453125	1364.860717773438	-557.5307006835938	-790.7839965820312	1385.331176757812	-247.4390106201172	-881.9393310546875	940.2789916992188	-507.7476501464844	-834.7341918945312	939.9411010742188	-229.6651153564453	-835.4398193359375	892.368896484375	-489.5216369628906	-1222.51220703125	136.4863891601562	-349.1543579101562	-811.3736572265625	896.2008666992188	-253.3267669677734	-973.588623046875	827.0326538085938	-515.6937255859375	-936.2052612304688	816.2301635742188	-186.1217651367188	-996.5389404296876	945.3386840820312	-360.1786499023438	-890.2278442382812	595.69189453125	-511.6044311523438	-1068.589599609375	296.8034057617188	-442.5870971679688	-963.5825805664062	592.6589965820312	-487.5951843261719	-874.5299682617188	500.6337585449219	-485.4855041503906	-973.702880859375	117.1281967163086	-192.7304077148438	-1007.299133300781	369.6372680664062	-469.0005798339844	-951.5353393554688	497.7652893066406	-464.5658569335938	-724.479248046875	655.4640502929688	-199.7313537597656	-979.2025146484376	63.07992935180664	-389.17724609375	-795.4979248046875	625.4515991210938	-183.8517150878906	-684.6663818359375	565.6962890625	-224.2398986816406	-759.1839599609375	531.512939453125	-201.7552490234375	-921.0471801757812	424.2620544433594	-475.04638671875	-723.1133422851562	482.8910217285156	-212.8306579589844	-941.589111328125	320.7691345214844	-461.3763122558594	-1006.368041992188	245.4281158447266	-436.3995666503906	-779.4557495117188	385.6222229003906	-209.2339630126953	-1051.948852539062	66.08329772949219	-447.8034057617188	-837.9823608398438	448.4286193847656	-207.5163116455078	-1218.543212890625	103.7257080078125	-323.1737670898438	-860.687255859375	320.879638671875	-221.0866394042969	-908.7379150390624	383.6865234375	-218.0230865478516	-1152.274780273438	146.0671539306641	-410.7112426757812	-1018.999755859375	251.0982818603516	-232.5269317626953	-917.095947265625	67.83108520507812	-256.7129516601562	-1080.563598632812	266.3084411621094	-289.5818176269531	-1093.939086914062	235.9796295166016	-314.8451232910156	-1098.48974609375	255.6614685058594	-264.5799255371094	-1229.243896484375	109.0464019775391	-376.8480224609375
125	0.62	-789.6277465820312	1368.816528320312	-557.1654052734375	-777.486328125	1388.803833007812	-247.1836242675781	-865.3668823242188	942.78564453125	-508.3422546386719	-816.9044799804688	943.75	-231.1391906738281	-819.3251342773438	894.5490112304688	-490.122802734375	-1219.047241210938	140.9472198486328	-350.4977111816406	-791.4171752929688	900.8329467773438	-256.9695129394531	-958.9158935546876	829.8731079101562	-516.1702880859375	-919.9521484375	820.2706909179688	-186.1781616210938	-980.4889526367188	948.6050415039062	-360.8613891601562	-881.1981811523438	597.5205078125	-511.8345642089844	-1064.83154296875	300.7786254882812	-443.8752136230469	-954.3815307617188	596.5925903320312	-487.7908020019531	-867.6731567382812	501.8319702148438	-485.2940063476562	-939.87646484375	114.7551422119141	-193.1052093505859	-1002.633911132812	372.66064453125	-469.5412902832031	-944.9241333007812	501.51318359375	-465.247802734375	-706.6028442382812	661.0568237304688	-200.6466064453125	-978.6699829101562	62.90327453613281	-389.2509155273438	-776.9241943359375	630.0057373046875	-184.8312072753906	-665.6471557617188	571.9608764648438	-225.7590026855469	-739.4567260742188	536.7291259765625	-203.3338928222656	-916.2315063476562	426.7766418457031	-475.121337890625	-702.7413330078125	488.3990173339844	-214.2201232910156	-937.599853515625	323.3660888671875	-461.8419189453125	-1002.858764648438	248.2984161376953	-437.1859436035156	-756.0615844726562	389.3332824707031	-210.6122283935547	-1051.107666015625	65.55657958984375	-447.9573669433594	-816.9547729492188	449.7379455566406	-209.1239929199219	-1216.254760742188	108.4093475341797	-324.4600524902344	-834.3460693359375	321.4300231933594	-222.7338409423828	-884.9056396484375	382.5550231933594	-219.3605346679688	-1149.453247070312	149.6829833984375	-411.7611389160156	-991.0052490234376	245.9753265380859	-233.9599304199219	-881.002197265625	67.46438598632812	-257.030029296875	-1052.607788085938	258.4841003417969	-290.6831970214844	-1065.063720703125	227.5877380371094	-315.2652587890625	-1070.76318359375	246.9313812255859	-265.4367065429688	-1226.943237304688	113.1592254638672	-377.672119140625
126	0.625	-771.5576171875	1373.134765625	-556.8059692382812	-764.3890991210938	1392.625122070312	-246.9884796142578	-848.9138793945312	945.31884765625	-508.9453125	-800.2037963867188	948.0940551757812	-232.2164154052734	-803.0014038085938	896.6818237304688	-490.3746643066406	-1216.585205078125	145.8878631591797	-351.7151184082031	-773.952392578125	905.19873046875	-258.4518127441406	-943.4933471679688	833.3323364257812	-516.3218994140625	-903.658935546875	824.4354858398438	-186.5529327392578	-964.1248779296876	951.5155639648438	-362.4242248535156	-871.379638671875	599.8821411132812	-511.7733154296875	-1060.861328125	304.3030700683594	-444.3067016601562	-945.2500610351562	601.0206909179688	-487.9353332519531	-860.4496459960938	504.190185546875	-485.3192749023438	-905.974609375	111.8745040893555	-193.6556549072266	-999.5623168945312	376.9302062988281	-469.8519897460938	-938.0257568359376	505.4445495605469	-465.5783996582031	-688.8013916015625	666.63427734375	-201.5100402832031	-978.33154296875	62.52858352661133	-389.4813842773438	-758.6461791992188	634.6281127929688	-185.7659149169922	-646.794189453125	578.085693359375	-227.3759002685547	-720.1561279296875	542.0110473632812	-204.6512908935547	-910.7337646484376	429.9151306152344	-475.5188293457031	-682.1790771484375	493.0744018554688	-215.8784637451172	-933.0588989257812	326.4000244140625	-462.4154052734375	-999.098388671875	251.7212829589844	-438.0604248046875	-733.1297607421875	392.5798034667969	-211.9412078857422	-1050.589965820312	65.92388153076172	-448.1619873046875	-796.170654296875	451.3355712890625	-210.364990234375	-1213.721557617188	113.787483215332	-325.6620178222656	-809.2703857421875	322.3863830566406	-223.8524780273438	-861.8308715820312	381.2970581054688	-220.8088989257812	-1146.13671875	153.0334777832031	-412.5372924804688	-962.7971801757812	240.8917388916016	-235.2041931152344	-845.5280151367188	67.24430847167969	-257.3851623535156	-1024.9716796875	250.3739776611328	-291.7687072753906	-1036.624877929688	219.2240753173828	-316.339111328125	-1042.336669921875	238.3855895996094	-266.4884948730469	-1224.218383789062	118.0923690795898	-378.9749450683594
